<svg width="800" height="600" xmlns="http://www.w3.org/2000/svg">
  <!-- Background -->
  <rect width="800" height="600" fill="#f8fafc"/>
  
  <!-- Title -->
  <text x="400" y="30" text-anchor="middle" class="title" fill="#1e293b" font-size="24" font-weight="bold">Architecture Éléa Quiz AI Generator</text>
  
  <!-- Frontend Layer -->
  <rect x="50" y="60" width="700" height="120" fill="#e0f2fe" stroke="#0891b2" stroke-width="2" rx="10"/>
  <text x="70" y="85" fill="#0891b2" font-size="16" font-weight="bold">Frontend (React + TypeScript)</text>
  
  <!-- Frontend Components -->
  <rect x="70" y="100" width="140" height="60" fill="#ffffff" stroke="#0891b2" rx="5"/>
  <text x="140" y="125" text-anchor="middle" fill="#0891b2" font-size="12">FileUpload</text>
  <text x="140" y="140" text-anchor="middle" fill="#0891b2" font-size="12">Component</text>
  
  <rect x="230" y="100" width="140" height="60" fill="#ffffff" stroke="#0891b2" rx="5"/>
  <text x="300" y="125" text-anchor="middle" fill="#0891b2" font-size="12">AIProvider</text>
  <text x="300" y="140" text-anchor="middle" fill="#0891b2" font-size="12">Selector</text>
  
  <rect x="390" y="100" width="140" height="60" fill="#ffffff" stroke="#0891b2" rx="5"/>
  <text x="460" y="125" text-anchor="middle" fill="#0891b2" font-size="12">QuizGenerator</text>
  <text x="460" y="140" text-anchor="middle" fill="#0891b2" font-size="12">Interface</text>
  
  <rect x="550" y="100" width="140" height="60" fill="#ffffff" stroke="#0891b2" rx="5"/>
  <text x="620" y="125" text-anchor="middle" fill="#0891b2" font-size="12">Question</text>
  <text x="620" y="140" text-anchor="middle" fill="#0891b2" font-size="12">Review</text>
  
  <!-- Service Layer -->
  <rect x="50" y="200" width="700" height="120" fill="#f0fdf4" stroke="#16a34a" stroke-width="2" rx="10"/>
  <text x="70" y="225" fill="#16a34a" font-size="16" font-weight="bold">Services Layer</text>
  
  <rect x="70" y="240" width="160" height="60" fill="#ffffff" stroke="#16a34a" rx="5"/>
  <text x="150" y="265" text-anchor="middle" fill="#16a34a" font-size="12">AI Service</text>
  <text x="150" y="280" text-anchor="middle" fill="#16a34a" font-size="12">(OpenAI/Azure/Mistral)</text>
  
  <rect x="250" y="240" width="120" height="60" fill="#ffffff" stroke="#16a34a" rx="5"/>
  <text x="310" y="265" text-anchor="middle" fill="#16a34a" font-size="12">PDF Service</text>
  <text x="310" y="280" text-anchor="middle" fill="#16a34a" font-size="12">(Extraction)</text>
  
  <rect x="390" y="240" width="120" height="60" fill="#ffffff" stroke="#16a34a" rx="5"/>
  <text x="450" y="265" text-anchor="middle" fill="#16a34a" font-size="12">Export Service</text>
  <text x="450" y="280" text-anchor="middle" fill="#16a34a" font-size="12">(Moodle/GIFT)</text>
  
  <rect x="530" y="240" width="120" height="60" fill="#ffffff" stroke="#16a34a" rx="5"/>
  <text x="590" y="265" text-anchor="middle" fill="#16a34a" font-size="12">Éléa Service</text>
  <text x="590" y="280" text-anchor="middle" fill="#16a34a" font-size="12">(Integration)</text>
  
  <!-- AI Providers -->
  <rect x="50" y="340" width="700" height="120" fill="#fef3c7" stroke="#f59e0b" stroke-width="2" rx="10"/>
  <text x="70" y="365" fill="#f59e0b" font-size="16" font-weight="bold">AI Providers</text>
  
  <rect x="100" y="380" width="150" height="60" fill="#ffffff" stroke="#f59e0b" rx="5"/>
  <text x="175" y="405" text-anchor="middle" fill="#f59e0b" font-size="14" font-weight="bold">OpenAI</text>
  <text x="175" y="420" text-anchor="middle" fill="#f59e0b" font-size="10">GPT-4, GPT-3.5</text>
  
  <rect x="275" y="380" width="150" height="60" fill="#ffffff" stroke="#f59e0b" rx="5"/>
  <text x="350" y="405" text-anchor="middle" fill="#f59e0b" font-size="14" font-weight="bold">Azure OpenAI</text>
  <text x="350" y="420" text-anchor="middle" fill="#f59e0b" font-size="10">Enterprise Grade</text>
  
  <rect x="450" y="380" width="150" height="60" fill="#ffffff" stroke="#ff7000" rx="5"/>
  <text x="525" y="405" text-anchor="middle" fill="#ff7000" font-size="14" font-weight="bold">Mistral AI</text>
  <text x="525" y="420" text-anchor="middle" fill="#ff7000" font-size="10">🇪🇺 European, RGPD</text>
  
  <!-- External Systems -->
  <rect x="50" y="480" width="700" height="80" fill="#fce7f3" stroke="#ec4899" stroke-width="2" rx="10"/>
  <text x="70" y="505" fill="#ec4899" font-size="16" font-weight="bold">External Systems</text>
  
  <rect x="100" y="520" width="150" height="30" fill="#ffffff" stroke="#ec4899" rx="5"/>
  <text x="175" y="540" text-anchor="middle" fill="#ec4899" font-size="12">Éléa/Moodle</text>
  
  <rect x="275" y="520" width="150" height="30" fill="#ffffff" stroke="#ec4899" rx="5"/>
  <text x="350" y="540" text-anchor="middle" fill="#ec4899" font-size="12">Azure Storage</text>
  
  <rect x="450" y="520" width="150" height="30" fill="#ffffff" stroke="#ec4899" rx="5"/>
  <text x="525" y="540" text-anchor="middle" fill="#ec4899" font-size="12">Key Vault</text>
  
  <!-- Arrows -->
  <defs>
    <marker id="arrowhead" markerWidth="10" markerHeight="7" refX="9" refY="3.5" orient="auto">
      <polygon points="0 0, 10 3.5, 0 7" fill="#6b7280"/>
    </marker>
  </defs>
  
  <!-- Frontend to Services -->
  <line x1="400" y1="180" x2="400" y2="200" stroke="#6b7280" stroke-width="2" marker-end="url(#arrowhead)"/>
  
  <!-- Services to AI Providers -->
  <line x1="400" y1="320" x2="400" y2="340" stroke="#6b7280" stroke-width="2" marker-end="url(#arrowhead)"/>
  
  <!-- Services to External -->
  <line x1="400" y1="320" x2="400" y2="480" stroke="#6b7280" stroke-width="2" marker-end="url(#arrowhead)" stroke-dasharray="5,5"/>
</svg>
