<svg width="800" height="500" xmlns="http://www.w3.org/2000/svg">
  <!-- Background -->
  <rect width="800" height="500" fill="#f8fafc"/>
  
  <!-- Title -->
  <text x="400" y="30" text-anchor="middle" fill="#1e293b" font-size="22" font-weight="bold">Flux de génération de quiz avec IA</text>
  
  <!-- Step 1: Upload -->
  <rect x="50" y="60" width="120" height="80" fill="#dbeafe" stroke="#3b82f6" stroke-width="2" rx="10"/>
  <text x="110" y="85" text-anchor="middle" fill="#3b82f6" font-size="12" font-weight="bold">1. Upload</text>
  <text x="110" y="105" text-anchor="middle" fill="#3b82f6" font-size="11">Document</text>
  <text x="110" y="120" text-anchor="middle" fill="#3b82f6" font-size="11">(PDF/DOCX)</text>
  
  <!-- Step 2: Analysis -->
  <rect x="200" y="60" width="120" height="80" fill="#dcfce7" stroke="#22c55e" stroke-width="2" rx="10"/>
  <text x="260" y="85" text-anchor="middle" fill="#22c55e" font-size="12" font-weight="bold">2. Analyse</text>
  <text x="260" y="105" text-anchor="middle" fill="#22c55e" font-size="11">Extraction</text>
  <text x="260" y="120" text-anchor="middle" fill="#22c55e" font-size="11">de contenu</text>
  
  <!-- Step 3: Configuration -->
  <rect x="350" y="60" width="120" height="80" fill="#fef3c7" stroke="#f59e0b" stroke-width="2" rx="10"/>
  <text x="410" y="85" text-anchor="middle" fill="#f59e0b" font-size="12" font-weight="bold">3. Config IA</text>
  <text x="410" y="105" text-anchor="middle" fill="#f59e0b" font-size="11">Provider</text>
  <text x="410" y="120" text-anchor="middle" fill="#f59e0b" font-size="11">+ Paramètres</text>
  
  <!-- Step 4: Generation -->
  <rect x="500" y="60" width="120" height="80" fill="#fce7f3" stroke="#ec4899" stroke-width="2" rx="10"/>
  <text x="560" y="85" text-anchor="middle" fill="#ec4899" font-size="12" font-weight="bold">4. Génération</text>
  <text x="560" y="105" text-anchor="middle" fill="#ec4899" font-size="11">Questions IA</text>
  <text x="560" y="120" text-anchor="middle" fill="#ec4899" font-size="11">(OpenAI/Mistral)</text>
  
  <!-- Step 5: Review -->
  <rect x="630" y="60" width="120" height="80" fill="#f3e8ff" stroke="#a855f7" stroke-width="2" rx="10"/>
  <text x="690" y="85" text-anchor="middle" fill="#a855f7" font-size="12" font-weight="bold">5. Révision</text>
  <text x="690" y="105" text-anchor="middle" fill="#a855f7" font-size="11">Validation</text>
  <text x="690" y="120" text-anchor="middle" fill="#a855f7" font-size="11">+ Édition</text>
  
  <!-- Arrows between steps -->
  <defs>
    <marker id="arrow" markerWidth="10" markerHeight="7" refX="9" refY="3.5" orient="auto">
      <polygon points="0 0, 10 3.5, 0 7" fill="#6b7280"/>
    </marker>
  </defs>
  
  <line x1="170" y1="100" x2="200" y2="100" stroke="#6b7280" stroke-width="2" marker-end="url(#arrow)"/>
  <line x1="320" y1="100" x2="350" y2="100" stroke="#6b7280" stroke-width="2" marker-end="url(#arrow)"/>
  <line x1="470" y1="100" x2="500" y2="100" stroke="#6b7280" stroke-width="2" marker-end="url(#arrow)"/>
  <line x1="620" y1="100" x2="630" y2="100" stroke="#6b7280" stroke-width="2" marker-end="url(#arrow)"/>
  
  <!-- AI Providers Section -->
  <text x="400" y="200" text-anchor="middle" fill="#1e293b" font-size="18" font-weight="bold">Providers IA Supportés</text>
  
  <!-- OpenAI -->
  <rect x="100" y="220" width="180" height="100" fill="#ffffff" stroke="#10b981" stroke-width="2" rx="10"/>
  <text x="190" y="245" text-anchor="middle" fill="#10b981" font-size="16" font-weight="bold">OpenAI</text>
  <text x="190" y="265" text-anchor="middle" fill="#6b7280" font-size="12">• GPT-4, GPT-3.5-turbo</text>
  <text x="190" y="280" text-anchor="middle" fill="#6b7280" font-size="12">• Haute qualité</text>
  <text x="190" y="295" text-anchor="middle" fill="#6b7280" font-size="12">• API simple</text>
  <text x="190" y="310" text-anchor="middle" fill="#6b7280" font-size="12">• Multilingue</text>
  
  <!-- Azure OpenAI -->
  <rect x="310" y="220" width="180" height="100" fill="#ffffff" stroke="#3b82f6" stroke-width="2" rx="10"/>
  <text x="400" y="245" text-anchor="middle" fill="#3b82f6" font-size="16" font-weight="bold">Azure OpenAI</text>
  <text x="400" y="265" text-anchor="middle" fill="#6b7280" font-size="12">• Enterprise grade</text>
  <text x="400" y="280" text-anchor="middle" fill="#6b7280" font-size="12">• Sécurité renforcée</text>
  <text x="400" y="295" text-anchor="middle" fill="#6b7280" font-size="12">• Managed Identity</text>
  <text x="400" y="310" text-anchor="middle" fill="#6b7280" font-size="12">• Conformité EU</text>
  
  <!-- Mistral AI -->
  <rect x="520" y="220" width="180" height="100" fill="#ffffff" stroke="#ff7000" stroke-width="2" rx="10"/>
  <text x="610" y="245" text-anchor="middle" fill="#ff7000" font-size="16" font-weight="bold">Mistral AI 🌟</text>
  <text x="610" y="265" text-anchor="middle" fill="#6b7280" font-size="12">• 🇪🇺 Souveraineté EU</text>
  <text x="610" y="280" text-anchor="middle" fill="#6b7280" font-size="12">• 🔒 Safe Prompt</text>
  <text x="610" y="295" text-anchor="middle" fill="#6b7280" font-size="12">• 🎯 Optimisé FR</text>
  <text x="610" y="310" text-anchor="middle" fill="#6b7280" font-size="12">• 💰 Économique</text>
  
  <!-- Export Options -->
  <text x="400" y="360" text-anchor="middle" fill="#1e293b" font-size="18" font-weight="bold">Options d'Export</text>
  
  <!-- Export formats -->
  <rect x="100" y="380" width="120" height="60" fill="#fef2f2" stroke="#ef4444" rx="5"/>
  <text x="160" y="405" text-anchor="middle" fill="#ef4444" font-size="12" font-weight="bold">Moodle XML</text>
  <text x="160" y="420" text-anchor="middle" fill="#ef4444" font-size="10">Format natif</text>
  
  <rect x="240" y="380" width="120" height="60" fill="#f0f9ff" stroke="#0ea5e9" rx="5"/>
  <text x="300" y="405" text-anchor="middle" fill="#0ea5e9" font-size="12" font-weight="bold">GIFT</text>
  <text x="300" y="420" text-anchor="middle" fill="#0ea5e9" font-size="10">Import simple</text>
  
  <rect x="380" y="380" width="120" height="60" fill="#f7fee7" stroke="#65a30d" rx="5"/>
  <text x="440" y="405" text-anchor="middle" fill="#65a30d" font-size="12" font-weight="bold">JSON</text>
  <text x="440" y="420" text-anchor="middle" fill="#65a30d" font-size="10">Données brutes</text>
  
  <rect x="520" y="380" width="120" height="60" fill="#fefce8" stroke="#ca8a04" rx="5"/>
  <text x="580" y="405" text-anchor="middle" fill="#ca8a04" font-size="12" font-weight="bold">Éléa Direct</text>
  <text x="580" y="420" text-anchor="middle" fill="#ca8a04" font-size="10">Déploiement</text>
  
  <!-- Final export arrow -->
  <line x1="690" y1="140" x2="690" y2="170" stroke="#6b7280" stroke-width="2" marker-end="url(#arrow)"/>
  <line x1="690" y1="170" x2="400" y2="170" stroke="#6b7280" stroke-width="2"/>
  <line x1="400" y1="170" x2="400" y2="380" stroke="#6b7280" stroke-width="2" marker-end="url(#arrow)"/>
</svg>
